<?xml version="1.0"?>
<svg xmlns="http://www.w3.org/2000/svg" viewBox="0 0 64 64" width="512px" height="512px" class=""><g><g id="Config"><path d="M12,6H11a1,1,0,0,0,0,2h1a1,1,0,0,0,0-2Z" data-original="#000000" class="active-path" data-old_color="#000000" fill="#FFFFFF"/><path d="M17,6H16a1,1,0,0,0,0,2h1a1,1,0,0,0,0-2Z" data-original="#000000" class="active-path" data-old_color="#000000" fill="#FFFFFF"/><path d="M22,6H21a1,1,0,0,0,0,2h1a1,1,0,0,0,0-2Z" data-original="#000000" class="active-path" data-old_color="#000000" fill="#FFFFFF"/><path d="M59,10H58V5a3,3,0,0,0-3-3H9A3,3,0,0,0,6,5v5H5a3,3,0,0,0-3,3V45a3,3,0,0,0,3,3H24v6H19a3,3,0,0,0-3,3v5H48V57a3,3,0,0,0-3-3H40V48H59a3,3,0,0,0,3-3V13A3,3,0,0,0,59,10ZM40.465,40A8.92,8.92,0,0,0,41,37a9,9,0,1,0-17.465,3H14V34h4.58a1,1,0,0,0,.958-.712,13.459,13.459,0,0,1,1.024-2.476,1,1,0,0,0-.174-1.178l-3.234-3.243,4.237-4.237,3.243,3.234a1,1,0,0,0,1.178.174,13.459,13.459,0,0,1,2.476-1.024A1,1,0,0,0,29,23.58V19h6v4.58a1,1,0,0,0,.712.958,13.376,13.376,0,0,1,2.475,1.024,1,1,0,0,0,1.179-.174l3.243-3.235,4.238,4.238-3.235,3.243a1,1,0,0,0-.174,1.178,13.613,13.613,0,0,1,1.025,2.477A1,1,0,0,0,45.42,34H50v6ZM25.7,40a6.9,6.9,0,0,1-.7-3,7,7,0,0,1,14,0,6.88,6.88,0,0,1-.7,3ZM51,32H46.144a15.307,15.307,0,0,0-.606-1.465l3.43-3.439a1,1,0,0,0,0-1.413l-5.65-5.65a1,1,0,0,0-1.413,0l-3.438,3.43A15.587,15.587,0,0,0,37,22.856V18a1,1,0,0,0-1-1H28a1,1,0,0,0-1,1v4.856a15.2,15.2,0,0,0-1.465.606L22.1,20.032a1,1,0,0,0-1.413,0l-5.65,5.65a1,1,0,0,0,0,1.413l3.43,3.439A15.2,15.2,0,0,0,17.856,32H13a1,1,0,0,0-1,1v7H8V12H56V40H52V33A1,1,0,0,0,51,32ZM8,5A1,1,0,0,1,9,4H55a1,1,0,0,1,1,1v5H8ZM45,56a1,1,0,0,1,1,1v3H18V57a1,1,0,0,1,1-1Zm-7-2H26V48H38Zm22-9a1,1,0,0,1-1,1H5a1,1,0,0,1-1-1V13a1,1,0,0,1,1-1H6V41a1,1,0,0,0,1,1H57a1,1,0,0,0,1-1V12h1a1,1,0,0,1,1,1Z" data-original="#000000" class="active-path" data-old_color="#000000" fill="#FFFFFF"/></g></g> </svg>
